ffmpeg version 3.4.8-0ubuntu0.2 Copyright (c) 2000-2020 the FFmpeg developers
  built with gcc 7 (Ubuntu 7.5.0-3ubuntu1~18.04)
  configuration: --prefix=/usr --extra-version=0ubuntu0.2 --toolchain=hardened --libdir=/usr/lib/x86_64-linux-gnu --incdir=/usr/include/x86_64-linux-gnu --enable-gpl --disable-stripping --enable-avresample --enable-avisynth --enable-gnutls --enable-ladspa --enable-libass --enable-libbluray --enable-libbs2b --enable-libcaca --enable-libcdio --enable-libflite --enable-libfontconfig --enable-libfreetype --enable-libfribidi --enable-libgme --enable-libgsm --enable-libmp3lame --enable-libmysofa --enable-libopenjpeg --enable-libopenmpt --enable-libopus --enable-libpulse --enable-librubberband --enable-librsvg --enable-libshine --enable-libsnappy --enable-libsoxr --enable-libspeex --enable-libssh --enable-libtheora --enable-libtwolame --enable-libvorbis --enable-libvpx --enable-libwavpack --enable-libwebp --enable-libx265 --enable-libxml2 --enable-libxvid --enable-libzmq --enable-libzvbi --enable-omx --enable-openal --enable-opengl --enable-sdl2 --enable-libdc1394 --enable-libdrm --enable-libiec61883 --enable-chromaprint --enable-frei0r --enable-libopencv --enable-libx264 --enable-shared
  libavutil      55. 78.100 / 55. 78.100
  libavcodec     57.107.100 / 57.107.100
  libavformat    57. 83.100 / 57. 83.100
  libavdevice    57. 10.100 / 57. 10.100
  libavfilter     6.107.100 /  6.107.100
  libavresample   3.  7.  0 /  3.  7.  0
  libswscale      4.  8.100 /  4.  8.100
  libswresample   2.  9.100 /  2.  9.100
  libpostproc    54.  7.100 / 54.  7.100
[rawvideo @ 0x558f43e14a20] Estimating duration from bitrate, this may be inaccurate
Input #0, rawvideo, from '../../SVC-Encoder-20220109T061506Z-001/SVC-Encoder/Dataset/RollerCoaster/6f_2x2/tile_yuv/f3_t1_480x480.yuv':
  Duration: 00:00:10.00, start: 0.000000, bitrate: 82944 kb/s
    Stream #0:0: Video: rawvideo (I420 / 0x30323449), yuv420p, 480x480, 82944 kb/s, 30 tbr, 30 tbn, 30 tbc
Stream mapping:
  Stream #0:0 -> #0:0 (rawvideo (native) -> h264 (libx264))
Press [q] to stop, [?] for help
[libx264 @ 0x558f43e21c60] using cpu capabilities: MMX2 SSE2Fast LZCNT SSSE3 SSE4.2 AVX
[libx264 @ 0x558f43e21c60] profile High, level 3.0
Output #0, rawvideo, to 'RollerCoaster_f3_t1_480x480_x264_QP_36.h264':
  Metadata:
    encoder         : Lavf57.83.100
    Stream #0:0: Video: h264 (libx264), yuv420p, 480x480, q=-1--1, 30 fps, 30 tbn, 30 tbc
    Metadata:
      encoder         : Lavc57.107.100 libx264
    Side data:
      cpb: bitrate max/min/avg: 0/0/0 buffer size: 0 vbv_delay: -1
frame=  182 fps=0.0 q=42.0 PSNR=Y:nan U:nan V:nan *:nan size=      42kB time=00:00:04.63 bitrate=  73.5kbits/s speed=9.26x    frame=  300 fps=0.0 q=42.0 LPSNR=Y:inf U:inf V:inf *:inf size=      88kB time=00:00:09.93 bitrate=  72.2kbits/s speed=10.1x    
video:88kB audio:0kB subtitle:0kB other streams:0kB global headers:0kB muxing overhead: 0.000000%
[libx264 @ 0x558f43e21c60] frame I:2     Avg QP:34.15  size:  6144  PSNR Mean Y:38.56 U:42.50 V:41.20 Avg:39.40 Global:39.33
[libx264 @ 0x558f43e21c60] frame P:76    Avg QP:36.02  size:   557  PSNR Mean Y:37.18 U:42.10 V:41.12 Avg:38.21 Global:38.20
[libx264 @ 0x558f43e21c60] frame B:222   Avg QP:41.57  size:   158  PSNR Mean Y:36.82 U:41.98 V:41.07 Avg:37.89 Global:37.88
[libx264 @ 0x558f43e21c60] consecutive B-frames:  1.0%  0.7%  1.0% 97.3%
[libx264 @ 0x558f43e21c60] mb I  I16..4: 49.9% 33.8% 16.3%
[libx264 @ 0x558f43e21c60] mb P  I16..4:  0.6%  0.6%  0.0%  P16..4: 25.7%  1.5%  0.3%  0.0%  0.0%    skip:71.3%
[libx264 @ 0x558f43e21c60] mb B  I16..4:  0.1%  0.0%  0.0%  B16..8: 12.9%  0.2%  0.0%  direct: 0.0%  skip:86.7%  L0:44.5% L1:55.2% BI: 0.3%
[libx264 @ 0x558f43e21c60] 8x8 transform intra:38.5% inter:92.4%
[libx264 @ 0x558f43e21c60] coded y,uvDC,uvAC intra: 25.4% 46.2% 15.3% inter: 0.7% 0.8% 0.0%
[libx264 @ 0x558f43e21c60] i16 v,h,dc,p: 62% 21% 10%  7%
[libx264 @ 0x558f43e21c60] i8 v,h,dc,ddl,ddr,vr,hd,vl,hu: 19% 14% 36%  6%  4%  4%  8%  3%  5%
[libx264 @ 0x558f43e21c60] i4 v,h,dc,ddl,ddr,vr,hd,vl,hu: 19% 32% 23%  3%  6%  3% 10%  2%  3%
[libx264 @ 0x558f43e21c60] i8c dc,h,v,p: 62% 18% 14%  6%
[libx264 @ 0x558f43e21c60] Weighted P-Frames: Y:0.0% UV:0.0%
[libx264 @ 0x558f43e21c60] ref P L0: 54.8% 15.5% 21.6%  8.2%
[libx264 @ 0x558f43e21c60] ref B L0: 59.7% 32.6%  7.7%
[libx264 @ 0x558f43e21c60] ref B L1: 73.4% 26.6%
[libx264 @ 0x558f43e21c60] PSNR Mean Y:36.922 U:42.011 V:41.082 Avg:37.985 Global:37.967 kb/s:71.75
